<?xml version="1.0" encoding="UTF-8"?>
<svg xmlns="http://www.w3.org/2000/svg" xmlns:xlink="http://www.w3.org/1999/xlink" width="24px" height="24px" viewBox="0 0 24 24" version="1.1">
<g id="surface1">
<path style=" stroke:none;fill-rule:nonzero;fill:rgb(0%,0%,0%);fill-opacity:1;" d="M 24 12 C 24 5.371094 18.628906 0 12 0 C 5.371094 0 0 5.371094 0 12 C 0 17.625 3.875 22.351562 9.101562 23.648438 L 9.101562 15.664062 L 6.628906 15.664062 L 6.628906 12 L 9.101562 12 L 9.101562 10.421875 C 9.101562 6.335938 10.949219 4.445312 14.960938 4.445312 C 15.722656 4.445312 17.035156 4.59375 17.574219 4.742188 L 17.574219 8.0625 C 17.292969 8.035156 16.800781 8.015625 16.1875 8.015625 C 14.21875 8.015625 13.457031 8.761719 13.457031 10.695312 L 13.457031 12 L 17.375 12 L 16.703125 15.664062 L 13.453125 15.664062 L 13.453125 23.910156 C 19.398438 23.195312 24 18.136719 24 12 Z M 24 12 "/>
</g>
</svg>
