<svg width="150" height="100" viewBox="0 0 150 100" fill="none" xmlns="http://www.w3.org/2000/svg">
<path d="M16.8028 15.24C18.6428 15.24 19.6428 15.6533 19.8028 16.48L22.5228 28.76L25.2828 45.12C25.3361 45.3867 25.3628 45.64 25.3628 45.88C25.3628 46.0933 25.2961 46.2667 25.1628 46.4C25.0295 46.56 24.5761 46.64 23.8028 46.64C21.4295 46.64 20.1628 46.1333 20.0028 45.12L18.6028 36.88H13.0028L11.7628 45.16C11.6828 45.72 11.5761 46.0933 11.4428 46.28C11.3361 46.4667 11.1761 46.5733 10.9628 46.6C10.7495 46.6267 10.4028 46.64 9.92281 46.64H8.80281C7.86948 46.64 7.28281 46.5867 7.04281 46.48C6.45615 46.2667 6.12281 46.0267 6.04281 45.76C6.01615 45.6267 6.00281 45.5067 6.00281 45.4C6.00281 45.2933 6.28281 43.5333 6.84281 40.12C7.40281 36.7067 8.08281 32.64 8.88281 27.92C9.70948 23.2 10.2428 20.1067 10.4828 18.64C10.7495 17.1733 10.8961 16.3467 10.9228 16.16C11.0295 15.5467 12.9895 15.24 16.8028 15.24ZM15.6028 20.48L13.7628 32.04H17.7228L15.6028 20.48ZM28.7133 46V24.724H35.4093C36.6093 24.724 37.5813 25.012 38.3253 25.588C39.0693 26.14 39.4413 27.028 39.4413 28.252V31.708C39.4413 32.932 39.0693 33.88 38.3253 34.552C37.6053 35.224 36.6213 35.584 35.3733 35.632V35.596C36.1413 35.644 36.7173 35.92 37.1013 36.424C37.4853 36.904 37.8213 37.66 38.1093 38.692L40.3053 46H37.7853L35.8413 38.836C35.6493 38.164 35.3973 37.564 35.0853 37.036C34.7973 36.484 34.3173 36.208 33.6453 36.208H31.0533V46H28.7133ZM31.0533 34.588H34.2213C35.3253 34.588 36.0933 34.336 36.5253 33.832C36.9813 33.304 37.2093 32.536 37.2093 31.528V28.648C37.2093 27.76 36.9933 27.112 36.5613 26.704C36.1533 26.272 35.5173 26.056 34.6533 26.056H31.0533V34.588ZM48.6596 46.432C47.6036 46.432 46.6676 46.312 45.8516 46.072C45.0596 45.832 44.4236 45.34 43.9436 44.596C43.4876 43.828 43.2596 42.676 43.2596 41.14V29.152C43.2596 27.808 43.4876 26.8 43.9436 26.128C44.4236 25.456 45.0716 25.012 45.8876 24.796C46.7276 24.556 47.6636 24.436 48.6956 24.436C49.7516 24.436 50.6756 24.556 51.4676 24.796C52.2596 25.036 52.8836 25.492 53.3396 26.164C53.7956 26.836 54.0236 27.832 54.0236 29.152V32.896H51.7556V29.116C51.7556 28.18 51.6236 27.484 51.3596 27.028C51.0956 26.548 50.7236 26.236 50.2436 26.092C49.7876 25.948 49.2596 25.876 48.6596 25.876C48.0596 25.876 47.5196 25.948 47.0396 26.092C46.5836 26.236 46.2236 26.548 45.9596 27.028C45.7196 27.484 45.5996 28.18 45.5996 29.116V41.752C45.5996 42.712 45.7196 43.432 45.9596 43.912C46.2236 44.368 46.5836 44.668 47.0396 44.812C47.5196 44.956 48.0596 45.028 48.6596 45.028C49.2836 45.028 49.8236 44.956 50.2796 44.812C50.7356 44.668 51.0956 44.368 51.3596 43.912C51.6236 43.432 51.7556 42.712 51.7556 41.752V38.548H54.0236V41.104C54.0236 42.664 53.7956 43.828 53.3396 44.596C52.8836 45.34 52.2596 45.832 51.4676 46.072C50.6756 46.312 49.7396 46.432 48.6596 46.432ZM57.9985 46V24.724H60.2665V34.012H66.4945V24.724H68.7265V46H66.4945V35.74H60.2665V46H57.9985ZM73.2563 46V24.724H75.5243V46H73.2563ZM84.0934 14.8H86.0934L91.2134 32.6C91.4534 33.4 91.6534 34.2 91.8134 35C92.0001 35.8 92.1601 36.5067 92.2934 37.12C92.4268 37.7067 92.5068 38.12 92.5334 38.36H92.6934C92.7468 38.12 92.8268 37.6933 92.9334 37.08C93.0668 36.4667 93.2134 35.76 93.3734 34.96C93.5601 34.16 93.7601 33.3733 93.9734 32.6L99.0134 14.8H101.013L93.7734 40.28H91.4534L84.0934 14.8ZM78.1334 14.8H80.1734L89.1334 44.08H95.6934L104.653 14.8H106.693L97.1334 46H87.6934L78.1334 14.8ZM116.468 14.8H118.388V46H116.468V14.8ZM110.868 14.8H112.788V46H110.868V14.8ZM145.71 19.6V16.72H125.55V14.8H147.63V20.24L132.95 39.92H147.67V41.84H129.15L145.71 19.6ZM124.51 40.12L139.03 20.88H125.55V18.96H142.87L126.43 40.76V44.08H147.67V46H124.51V40.12Z" fill="#3A8E2F"/>
<path d="M6.20623 63H4.91362L8.65226 52.8182H9.92498L13.6636 63H12.371L9.32839 54.429H9.24885L6.20623 63ZM6.68351 59.0227H11.8937V60.1165H6.68351V59.0227ZM15.2496 63V52.8182H18.6899C19.4854 52.8182 20.1383 52.9541 20.6487 53.2259C21.1591 53.4943 21.537 53.8639 21.7822 54.3345C22.0275 54.8052 22.1501 55.3404 22.1501 55.9403C22.1501 56.5402 22.0275 57.0722 21.7822 57.5362C21.537 58.0002 21.1608 58.3648 20.6537 58.63C20.1466 58.8918 19.4986 59.0227 18.7098 59.0227H15.9257V57.9091H18.67C19.2136 57.9091 19.6511 57.8295 19.9825 57.6705C20.3173 57.5114 20.5592 57.286 20.7084 56.9943C20.8608 56.6993 20.9371 56.348 20.9371 55.9403C20.9371 55.5327 20.8608 55.1764 20.7084 54.8714C20.5559 54.5665 20.3123 54.3312 19.9775 54.1655C19.6428 53.9964 19.2003 53.9119 18.6501 53.9119H16.4825V63H15.2496ZM20.0422 58.4261L22.5479 63H21.116L18.6501 58.4261H20.0422ZM32.3978 56H31.1649C31.0919 55.6454 30.9643 55.3338 30.782 55.0653C30.6031 54.7969 30.3843 54.5715 30.1258 54.3892C29.8706 54.2036 29.5872 54.0644 29.2757 53.9716C28.9641 53.8788 28.6393 53.8324 28.3012 53.8324C27.6847 53.8324 27.1263 53.9882 26.6258 54.2997C26.1286 54.6113 25.7326 55.0703 25.4376 55.6768C25.1459 56.2834 25.0001 57.0275 25.0001 57.9091C25.0001 58.7907 25.1459 59.5348 25.4376 60.1413C25.7326 60.7479 26.1286 61.2069 26.6258 61.5185C27.1263 61.83 27.6847 61.9858 28.3012 61.9858C28.6393 61.9858 28.9641 61.9394 29.2757 61.8466C29.5872 61.7538 29.8706 61.6162 30.1258 61.4339C30.3843 61.2483 30.6031 61.0213 30.782 60.7528C30.9643 60.4811 31.0919 60.1695 31.1649 59.8182H32.3978C32.305 60.3385 32.136 60.8042 31.8907 61.2152C31.6454 61.6262 31.3405 61.9759 30.9759 62.2642C30.6114 62.5492 30.202 62.7663 29.748 62.9155C29.2972 63.0646 28.815 63.1392 28.3012 63.1392C27.4329 63.1392 26.6606 62.9271 25.9845 62.5028C25.3083 62.0786 24.7764 61.4754 24.3886 60.6932C24.0008 59.911 23.8069 58.983 23.8069 57.9091C23.8069 56.8352 24.0008 55.9072 24.3886 55.125C24.7764 54.3428 25.3083 53.7396 25.9845 53.3153C26.6606 52.8911 27.4329 52.679 28.3012 52.679C28.815 52.679 29.2972 52.7536 29.748 52.9027C30.202 53.0518 30.6114 53.2706 30.9759 53.5589C31.3405 53.844 31.6454 54.192 31.8907 54.603C32.136 55.0107 32.305 55.4763 32.3978 56ZM34.3902 63V52.8182H35.6231V57.3523H41.0521V52.8182H42.2851V63H41.0521V58.446H35.6231V63H34.3902ZM45.9864 52.8182V63H44.7535V52.8182H45.9864ZM47.9017 53.9119V52.8182H55.5381V53.9119H52.3364V63H51.1034V53.9119H47.9017ZM57.441 63V52.8182H63.5858V53.9119H58.6739V57.3523H63.2677V58.446H58.6739V61.9062H63.6654V63H57.441ZM74.0013 56H72.7684C72.6955 55.6454 72.5679 55.3338 72.3856 55.0653C72.2066 54.7969 71.9878 54.5715 71.7293 54.3892C71.4741 54.2036 71.1907 54.0644 70.8792 53.9716C70.5676 53.8788 70.2428 53.8324 69.9047 53.8324C69.2883 53.8324 68.7298 53.9882 68.2293 54.2997C67.7322 54.6113 67.3361 55.0703 67.0411 55.6768C66.7494 56.2834 66.6036 57.0275 66.6036 57.9091C66.6036 58.7907 66.7494 59.5348 67.0411 60.1413C67.3361 60.7479 67.7322 61.2069 68.2293 61.5185C68.7298 61.83 69.2883 61.9858 69.9047 61.9858C70.2428 61.9858 70.5676 61.9394 70.8792 61.8466C71.1907 61.7538 71.4741 61.6162 71.7293 61.4339C71.9878 61.2483 72.2066 61.0213 72.3856 60.7528C72.5679 60.4811 72.6955 60.1695 72.7684 59.8182H74.0013C73.9085 60.3385 73.7395 60.8042 73.4942 61.2152C73.249 61.6262 72.944 61.9759 72.5795 62.2642C72.2149 62.5492 71.8055 62.7663 71.3515 62.9155C70.9007 63.0646 70.4185 63.1392 69.9047 63.1392C69.0364 63.1392 68.2641 62.9271 67.588 62.5028C66.9118 62.0786 66.3799 61.4754 65.9921 60.6932C65.6043 59.911 65.4104 58.983 65.4104 57.9091C65.4104 56.8352 65.6043 55.9072 65.9921 55.125C66.3799 54.3428 66.9118 53.7396 67.588 53.3153C68.2641 52.8911 69.0364 52.679 69.9047 52.679C70.4185 52.679 70.9007 52.7536 71.3515 52.9027C71.8055 53.0518 72.2149 53.2706 72.5795 53.5589C72.944 53.844 73.249 54.192 73.4942 54.603C73.7395 55.0107 73.9085 55.4763 74.0013 56ZM75.4369 53.9119V52.8182H83.0732V53.9119H79.8715V63H78.6386V53.9119H75.4369ZM91.6579 52.8182H92.8909V59.5597C92.8909 60.2557 92.7268 60.8771 92.3987 61.424C92.0739 61.9676 91.6149 62.3968 91.0216 62.7116C90.4283 63.0232 89.7323 63.179 88.9335 63.179C88.1347 63.179 87.4387 63.0232 86.8454 62.7116C86.2522 62.3968 85.7915 61.9676 85.4633 61.424C85.1385 60.8771 84.9761 60.2557 84.9761 59.5597V52.8182H86.2091V59.4602C86.2091 59.9574 86.3184 60.3999 86.5372 60.7876C86.7559 61.1721 87.0675 61.4754 87.4719 61.6974C87.8795 61.9162 88.3667 62.0256 88.9335 62.0256C89.5003 62.0256 89.9875 61.9162 90.3952 61.6974C90.8028 61.4754 91.1144 61.1721 91.3298 60.7876C91.5486 60.3999 91.6579 59.9574 91.6579 59.4602V52.8182ZM95.3531 63V52.8182H98.7934C99.5889 52.8182 100.242 52.9541 100.752 53.2259C101.263 53.4943 101.64 53.8639 101.886 54.3345C102.131 54.8052 102.254 55.3404 102.254 55.9403C102.254 56.5402 102.131 57.0722 101.886 57.5362C101.64 58.0002 101.264 58.3648 100.757 58.63C100.25 58.8918 99.6021 59.0227 98.8133 59.0227H96.0292V57.9091H98.7735C99.3171 57.9091 99.7546 57.8295 100.086 57.6705C100.421 57.5114 100.663 57.286 100.812 56.9943C100.964 56.6993 101.041 56.348 101.041 55.9403C101.041 55.5327 100.964 55.1764 100.812 54.8714C100.659 54.5665 100.416 54.3312 100.081 54.1655C99.7463 53.9964 99.3038 53.9119 98.7536 53.9119H96.586V63H95.3531ZM100.146 58.4261L102.651 63H101.22L98.7536 58.4261H100.146ZM104.308 63V52.8182H110.453V53.9119H105.541V57.3523H110.135V58.446H105.541V61.9062H110.533V63H104.308ZM117.03 63H115.738L119.476 52.8182H120.749L124.488 63H123.195L120.153 54.429H120.073L117.03 63ZM117.508 59.0227H122.718V60.1165H117.508V59.0227ZM134.148 52.8182V63H132.954L127.406 55.0057H127.307V63H126.074V52.8182H127.267L132.835 60.8324H132.935V52.8182H134.148ZM139.757 63H136.615V52.8182H139.896C140.884 52.8182 141.729 53.022 142.432 53.4297C143.134 53.834 143.673 54.4157 144.047 55.1747C144.422 55.9304 144.609 56.8352 144.609 57.8892C144.609 58.9498 144.42 59.8629 144.042 60.6286C143.665 61.3909 143.114 61.9775 142.392 62.3885C141.669 62.7962 140.791 63 139.757 63ZM137.848 61.9062H139.677C140.519 61.9062 141.217 61.7438 141.77 61.419C142.324 61.0942 142.736 60.6319 143.008 60.032C143.28 59.4321 143.416 58.7178 143.416 57.8892C143.416 57.0672 143.282 56.3596 143.013 55.7663C142.745 55.1697 142.344 54.7124 141.81 54.3942C141.276 54.0727 140.612 53.9119 139.816 53.9119H137.848V61.9062Z" fill="#fff"/>
<path d="M24.4377 68.8182L27.4604 77.3892H27.5797L30.6025 68.8182H31.8951L28.1564 79H26.8837L23.1451 68.8182H24.4377ZM34.714 68.8182V79H33.481V68.8182H34.714ZM42.7543 71.3636C42.6946 70.8598 42.4527 70.4688 42.0284 70.1903C41.6042 69.9119 41.0838 69.7727 40.4673 69.7727C40.0166 69.7727 39.6222 69.8456 39.2841 69.9915C38.9493 70.1373 38.6875 70.3378 38.4986 70.593C38.313 70.8482 38.2202 71.1383 38.2202 71.4631C38.2202 71.7348 38.2848 71.9685 38.4141 72.1641C38.5466 72.3563 38.7157 72.517 38.9212 72.6463C39.1267 72.7723 39.3421 72.8767 39.5675 72.9595C39.7929 73.0391 40 73.1037 40.1889 73.1534L41.223 73.4318C41.4882 73.5014 41.7831 73.5975 42.108 73.7202C42.4361 73.8428 42.7493 74.0102 43.0476 74.2223C43.3492 74.4311 43.5978 74.6996 43.7933 75.0277C43.9889 75.3558 44.0866 75.7585 44.0866 76.2358C44.0866 76.786 43.9425 77.2831 43.6541 77.7273C43.3691 78.1714 42.9515 78.5244 42.4013 78.7862C41.8544 79.0481 41.1899 79.179 40.4077 79.179C39.6785 79.179 39.0471 79.0613 38.5135 78.826C37.9832 78.5907 37.5656 78.2625 37.2607 77.8416C36.959 77.4207 36.7884 76.9318 36.7486 76.375H38.0213C38.0545 76.7595 38.1837 77.0777 38.4091 77.3295C38.6378 77.5781 38.9261 77.7637 39.2741 77.8864C39.6255 78.0057 40.0033 78.0653 40.4077 78.0653C40.8783 78.0653 41.3009 77.9891 41.6754 77.8366C42.05 77.6809 42.3466 77.4654 42.5653 77.1903C42.7841 76.9119 42.8935 76.5871 42.8935 76.2159C42.8935 75.8778 42.799 75.6027 42.6101 75.3906C42.4212 75.1785 42.1726 75.0062 41.8643 74.8736C41.5561 74.741 41.223 74.625 40.8651 74.5256L39.6122 74.1676C38.8168 73.9389 38.187 73.6125 37.723 73.1882C37.259 72.764 37.027 72.2088 37.027 71.5227C37.027 70.9527 37.1811 70.4555 37.4893 70.0312C37.8009 69.6037 38.2185 69.2723 38.7422 69.0369C39.2692 68.7983 39.8575 68.679 40.5071 68.679C41.1634 68.679 41.7467 68.7966 42.2571 69.032C42.7675 69.264 43.1719 69.5821 43.4702 69.9865C43.7718 70.3909 43.9309 70.8499 43.9474 71.3636H42.7543ZM52.7956 68.8182H54.0286V75.5597C54.0286 76.2557 53.8645 76.8771 53.5364 77.424C53.2116 77.9676 52.7525 78.3968 52.1593 78.7116C51.566 79.0232 50.87 79.179 50.0712 79.179C49.2724 79.179 48.5764 79.0232 47.9831 78.7116C47.3899 78.3968 46.9292 77.9676 46.601 77.424C46.2762 76.8771 46.1138 76.2557 46.1138 75.5597V68.8182H47.3468V75.4602C47.3468 75.9574 47.4561 76.3999 47.6749 76.7876C47.8936 77.1721 48.2052 77.4754 48.6096 77.6974C49.0172 77.9162 49.5044 78.0256 50.0712 78.0256C50.638 78.0256 51.1252 77.9162 51.5328 77.6974C51.9405 77.4754 52.2521 77.1721 52.4675 76.7876C52.6863 76.3999 52.7956 75.9574 52.7956 75.4602V68.8182ZM56.9084 79H55.6158L59.3544 68.8182H60.6271L64.3658 79H63.0732L60.0305 70.429H59.951L56.9084 79ZM57.3857 75.0227H62.5959V76.1165H57.3857V75.0227ZM65.9517 79V68.8182H67.1847V77.9062H71.9176V79H65.9517ZM75.0597 68.8182V79H73.8267V68.8182H75.0597ZM77.1937 79V78.1051L82.6824 69.9119H77.1341V68.8182H84.1539V69.7131L78.6653 77.9062H84.2136V79H77.1937ZM86.6994 79H85.4068L89.1454 68.8182H90.4181L94.1568 79H92.8642L89.8216 70.429H89.742L86.6994 79ZM87.1767 75.0227H92.3869V76.1165H87.1767V75.0227ZM93.9964 69.9119V68.8182H101.633V69.9119H98.4311V79H97.1982V69.9119H93.9964ZM104.769 68.8182V79H103.536V68.8182H104.769ZM115.832 73.9091C115.832 74.983 115.638 75.911 115.25 76.6932C114.862 77.4754 114.33 78.0786 113.654 78.5028C112.978 78.9271 112.206 79.1392 111.337 79.1392C110.469 79.1392 109.697 78.9271 109.021 78.5028C108.344 78.0786 107.813 77.4754 107.425 76.6932C107.037 75.911 106.843 74.983 106.843 73.9091C106.843 72.8352 107.037 71.9072 107.425 71.125C107.813 70.3428 108.344 69.7396 109.021 69.3153C109.697 68.8911 110.469 68.679 111.337 68.679C112.206 68.679 112.978 68.8911 113.654 69.3153C114.33 69.7396 114.862 70.3428 115.25 71.125C115.638 71.9072 115.832 72.8352 115.832 73.9091ZM114.638 73.9091C114.638 73.0275 114.491 72.2834 114.196 71.6768C113.904 71.0703 113.508 70.6113 113.008 70.2997C112.511 69.9882 111.954 69.8324 111.337 69.8324C110.721 69.8324 110.162 69.9882 109.662 70.2997C109.165 70.6113 108.769 71.0703 108.474 71.6768C108.182 72.2834 108.036 73.0275 108.036 73.9091C108.036 74.7907 108.182 75.5348 108.474 76.1413C108.769 76.7479 109.165 77.2069 109.662 77.5185C110.162 77.83 110.721 77.9858 111.337 77.9858C111.954 77.9858 112.511 77.83 113.008 77.5185C113.508 77.2069 113.904 76.7479 114.196 76.1413C114.491 75.5348 114.638 74.7907 114.638 73.9091ZM125.979 68.8182V79H124.786L119.237 71.0057H119.138V79H117.905V68.8182H119.098L124.666 76.8324H124.766V68.8182H125.979Z" fill="#fff"/>
<path d="M54.9418 87.3636C54.8821 86.8598 54.6402 86.4688 54.2159 86.1903C53.7917 85.9119 53.2713 85.7727 52.6548 85.7727C52.2041 85.7727 51.8097 85.8456 51.4716 85.9915C51.1368 86.1373 50.875 86.3378 50.6861 86.593C50.5005 86.8482 50.4077 87.1383 50.4077 87.4631C50.4077 87.7348 50.4723 87.9685 50.6016 88.1641C50.7341 88.3563 50.9032 88.517 51.1087 88.6463C51.3142 88.7723 51.5296 88.8767 51.755 88.9595C51.9804 89.0391 52.1875 89.1037 52.3764 89.1534L53.4105 89.4318C53.6757 89.5014 53.9706 89.5975 54.2955 89.7202C54.6236 89.8428 54.9368 90.0102 55.2351 90.2223C55.5367 90.4311 55.7853 90.6996 55.9808 91.0277C56.1764 91.3558 56.2741 91.7585 56.2741 92.2358C56.2741 92.786 56.13 93.2831 55.8416 93.7273C55.5566 94.1714 55.139 94.5244 54.5888 94.7862C54.0419 95.0481 53.3774 95.179 52.5952 95.179C51.866 95.179 51.2346 95.0613 50.701 94.826C50.1707 94.5907 49.7531 94.2625 49.4482 93.8416C49.1465 93.4207 48.9759 92.9318 48.9361 92.375H50.2088C50.242 92.7595 50.3712 93.0777 50.5966 93.3295C50.8253 93.5781 51.1136 93.7637 51.4616 93.8864C51.813 94.0057 52.1908 94.0653 52.5952 94.0653C53.0658 94.0653 53.4884 93.9891 53.8629 93.8366C54.2375 93.6809 54.5341 93.4654 54.7528 93.1903C54.9716 92.9119 55.081 92.5871 55.081 92.2159C55.081 91.8778 54.9865 91.6027 54.7976 91.3906C54.6087 91.1785 54.3601 91.0062 54.0518 90.8736C53.7436 90.741 53.4105 90.625 53.0526 90.5256L51.7997 90.1676C51.0043 89.9389 50.3745 89.6125 49.9105 89.1882C49.4465 88.764 49.2145 88.2088 49.2145 87.5227C49.2145 86.9527 49.3686 86.4555 49.6768 86.0312C49.9884 85.6037 50.406 85.2723 50.9297 85.0369C51.4567 84.7983 52.045 84.679 52.6946 84.679C53.3509 84.679 53.9342 84.7966 54.4446 85.032C54.955 85.264 55.3594 85.5821 55.6577 85.9865C55.9593 86.3909 56.1184 86.8499 56.1349 87.3636H54.9418ZM57.7445 85.9119V84.8182H65.3809V85.9119H62.1792V95H60.9462V85.9119H57.7445ZM73.9656 84.8182H75.1985V91.5597C75.1985 92.2557 75.0344 92.8771 74.7063 93.424C74.3815 93.9676 73.9225 94.3968 73.3292 94.7116C72.7359 95.0232 72.0399 95.179 71.2411 95.179C70.4424 95.179 69.7463 95.0232 69.1531 94.7116C68.5598 94.3968 68.0991 93.9676 67.771 93.424C67.4461 92.8771 67.2837 92.2557 67.2837 91.5597V84.8182H68.5167V91.4602C68.5167 91.9574 68.6261 92.3999 68.8448 92.7876C69.0636 93.1721 69.3751 93.4754 69.7795 93.6974C70.1871 93.9162 70.6744 94.0256 71.2411 94.0256C71.8079 94.0256 72.2951 93.9162 72.7028 93.6974C73.1104 93.4754 73.422 93.1721 73.6374 92.7876C73.8562 92.3999 73.9656 91.9574 73.9656 91.4602V84.8182ZM80.8027 95H77.6607V84.8182H80.9419C81.9296 84.8182 82.7748 85.022 83.4775 85.4297C84.1801 85.834 84.7187 86.4157 85.0932 87.1747C85.4677 87.9304 85.655 88.8352 85.655 89.8892C85.655 90.9498 85.4661 91.8629 85.0882 92.6286C84.7104 93.3909 84.1602 93.9775 83.4377 94.3885C82.7151 94.7962 81.8368 95 80.8027 95ZM78.8936 93.9062H80.7232C81.565 93.9062 82.2627 93.7438 82.8162 93.419C83.3697 93.0942 83.7824 92.6319 84.0542 92.032C84.3259 91.4321 84.4618 90.7178 84.4618 89.8892C84.4618 89.0672 84.3276 88.3596 84.0591 87.7663C83.7907 87.1697 83.3896 86.7124 82.856 86.3942C82.3224 86.0727 81.6578 85.9119 80.8624 85.9119H78.8936V93.9062ZM88.9561 84.8182V95H87.7232V84.8182H88.9561ZM100.019 89.9091C100.019 90.983 99.8253 91.911 99.4375 92.6932C99.0497 93.4754 98.5178 94.0786 97.8416 94.5028C97.1655 94.9271 96.3932 95.1392 95.5249 95.1392C94.6565 95.1392 93.8842 94.9271 93.2081 94.5028C92.532 94.0786 92 93.4754 91.6122 92.6932C91.2244 91.911 91.0305 90.983 91.0305 89.9091C91.0305 88.8352 91.2244 87.9072 91.6122 87.125C92 86.3428 92.532 85.7396 93.2081 85.3153C93.8842 84.8911 94.6565 84.679 95.5249 84.679C96.3932 84.679 97.1655 84.8911 97.8416 85.3153C98.5178 85.7396 99.0497 86.3428 99.4375 87.125C99.8253 87.9072 100.019 88.8352 100.019 89.9091ZM98.826 89.9091C98.826 89.0275 98.6785 88.2834 98.3835 87.6768C98.0919 87.0703 97.6958 86.6113 97.1953 86.2997C96.6982 85.9882 96.1413 85.8324 95.5249 85.8324C94.9084 85.8324 94.3499 85.9882 93.8494 86.2997C93.3523 86.6113 92.9562 87.0703 92.6612 87.6768C92.3696 88.2834 92.2237 89.0275 92.2237 89.9091C92.2237 90.7907 92.3696 91.5348 92.6612 92.1413C92.9562 92.7479 93.3523 93.2069 93.8494 93.5185C94.3499 93.83 94.9084 93.9858 95.5249 93.9858C96.1413 93.9858 96.6982 93.83 97.1953 93.5185C97.6958 93.2069 98.0919 92.7479 98.3835 92.1413C98.6785 91.5348 98.826 90.7907 98.826 89.9091Z" fill="#fff"/>
</svg>
